RobotoSerifMicroCond-Super Italic 07fz.ufo
<glyph name="E" format="2">
  <advance width="629"/>
  <unicode hex="0045"/>
  <anchor x="378" y="741" name="top"/>
  <anchor x="450" y="0" name="right"/>
  <anchor x="378" y="0" name="bottom"/>
  <outline>
    <contour>
      <point x="570" y="224" type="line"/>
      <point x="470" y="224" type="line"/>
      <point x="427" y="128" type="line" smooth="yes"/>
      <point x="411" y="93"/>
      <point x="387" y="86"/>
      <point x="324" y="86" type="curve" smooth="yes"/>
      <point x="248" y="86" type="line"/>
      <point x="382" y="624" type="line"/>
      <point x="461" y="624" type="line" smooth="yes"/>
      <point x="501" y="624"/>
      <point x="522" y="616"/>
      <point x="520" y="582" type="curve" smooth="yes"/>
      <point x="516" y="511" type="line"/>
      <point x="614" y="511" type="line"/>
      <point x="657" y="710" type="line"/>
      <point x="133" y="710" type="line"/>
      <point x="111" y="625" type="line"/>
      <point x="121" y="625" type="line" smooth="yes"/>
      <point x="145" y="625"/>
      <point x="152" y="620"/>
      <point x="144" y="589" type="curve" smooth="yes"/>
      <point x="28" y="121" type="line" smooth="yes"/>
      <point x="21" y="91"/>
      <point x="6" y="85"/>
      <point x="-14" y="85" type="curve" smooth="yes"/>
      <point x="-23" y="85" type="line"/>
      <point x="-45" y="0" type="line"/>
      <point x="517" y="0" type="line"/>
    </contour>
    <contour>
      <point x="316" y="402" type="curve"/>
      <point x="297" y="328" type="line"/>
      <point x="360" y="321"/>
      <point x="421" y="314"/>
      <point x="482" y="307" type="curve"/>
      <point x="511" y="423" type="line"/>
      <point x="445" y="416"/>
      <point x="380" y="409"/>
    </contour>
  </outline>
</glyph>
<glyph name="N" format="2">
  <advance width="674"/>
  <unicode hex="004E"/>
  <anchor x="348.0" y="741" name="top"/>
  <anchor x="348.0" y="0" name="bottom"/>
  <outline>
    <contour>
      <point x="-45" y="0" type="line"/>
      <point x="126" y="0" type="line"/>
      <point x="148" y="85" type="line"/>
      <point x="138" y="85" type="line" smooth="yes"/>
      <point x="125" y="85"/>
      <point x="109" y="88"/>
      <point x="111" y="95" type="curve"/>
      <point x="251" y="656" type="line"/>
      <point x="235" y="666" type="line"/>
      <point x="300" y="0" type="line"/>
      <point x="527" y="0" type="line"/>
      <point x="676" y="593" type="line" smooth="yes"/>
      <point x="683" y="622"/>
      <point x="695" y="625"/>
      <point x="714" y="625" type="curve" smooth="yes"/>
      <point x="721" y="625" type="line"/>
      <point x="743" y="710" type="line"/>
      <point x="570" y="710" type="line"/>
      <point x="548" y="625" type="line"/>
      <point x="559" y="625" type="line" smooth="yes"/>
      <point x="570" y="625"/>
      <point x="592" y="622"/>
      <point x="590" y="615" type="curve" smooth="yes"/>
      <point x="473" y="151" type="line"/>
      <point x="506" y="152" type="line"/>
      <point x="450" y="710" type="line"/>
      <point x="133" y="710" type="line"/>
      <point x="111" y="625" type="line"/>
      <point x="121" y="625" type="line" smooth="yes"/>
      <point x="139" y="625"/>
      <point x="149" y="617"/>
      <point x="142" y="589" type="curve" smooth="yes"/>
      <point x="26" y="121" type="line" smooth="yes"/>
      <point x="18" y="92"/>
      <point x="2" y="85"/>
      <point x="-14" y="85" type="curve" smooth="yes"/>
      <point x="-23" y="85" type="line"/>
    </contour>
  </outline>
</glyph>
<glyph name="W" format="2">
  <advance width="928"/>
  <unicode hex="0057"/>
  <guideline x="222" y="173" angle="0" identifier="9JG3WmlYoA"/>
  <anchor x="463" y="741" name="top"/>
  <outline>
    <contour>
      <point x="99" y="710" type="line"/>
      <point x="78" y="625" type="line"/>
      <point x="85" y="625" type="line" smooth="yes"/>
      <point x="104" y="625"/>
      <point x="116" y="622"/>
      <point x="115" y="598" type="curve" smooth="yes"/>
      <point x="87" y="0" type="line"/>
      <point x="329" y="0" type="line"/>
      <point x="555" y="586" type="line"/>
      <point x="534" y="588" type="line"/>
      <point x="488" y="0" type="line"/>
      <point x="717" y="0" type="line"/>
      <point x="931" y="580" type="line" smooth="yes"/>
      <point x="942" y="611"/>
      <point x="956" y="625"/>
      <point x="979" y="625" type="curve" smooth="yes"/>
      <point x="985" y="625" type="line"/>
      <point x="1006" y="710" type="line"/>
      <point x="841" y="710" type="line"/>
      <point x="820" y="625" type="line"/>
      <point x="828" y="625" type="line"/>
      <point x="857" y="625"/>
      <point x="858" y="615"/>
      <point x="857" y="605" type="curve"/>
      <point x="675" y="107" type="line"/>
      <point x="695" y="110" type="line"/>
      <point x="734" y="710" type="line"/>
      <point x="521" y="710" type="line"/>
      <point x="286" y="98" type="line"/>
      <point x="309" y="69" type="line"/>
      <point x="344" y="614" type="line"/>
      <point x="346" y="621"/>
      <point x="353" y="625"/>
      <point x="376" y="625" type="curve" smooth="yes"/>
      <point x="383" y="625" type="line"/>
      <point x="404" y="710" type="line"/>
    </contour>
  </outline>
</glyph>
<glyph name="Y" format="2">
  <advance width="626"/>
  <unicode hex="0059"/>
  <anchor x="293" y="741" name="top"/>
  <anchor x="293" y="0" name="bottom"/>
  <outline>
    <contour>
      <point x="74" y="0" type="line"/>
      <point x="402" y="0" type="line"/>
      <point x="424" y="85" type="line"/>
      <point x="409" y="85" type="line" smooth="yes"/>
      <point x="386" y="85"/>
      <point x="376" y="91"/>
      <point x="383" y="121" type="curve" smooth="yes"/>
      <point x="434" y="327" type="line"/>
      <point x="388" y="234" type="line"/>
      <point x="610" y="567" type="line" smooth="yes"/>
      <point x="640" y="611"/>
      <point x="659" y="625"/>
      <point x="682" y="625" type="curve" smooth="yes"/>
      <point x="686" y="625" type="line"/>
      <point x="708" y="710" type="line"/>
      <point x="516" y="710" type="line"/>
      <point x="494" y="625" type="line"/>
      <point x="499" y="625" type="line" smooth="yes"/>
      <point x="534" y="625"/>
      <point x="540" y="615"/>
      <point x="535" y="602" type="curve"/>
      <point x="341" y="297" type="line"/>
      <point x="406" y="306" type="line"/>
      <point x="350" y="614" type="line"/>
      <point x="351" y="621"/>
      <point x="357" y="625"/>
      <point x="397" y="625" type="curve" smooth="yes"/>
      <point x="402" y="625" type="line"/>
      <point x="424" y="710" type="line"/>
      <point x="112" y="710" type="line"/>
      <point x="90" y="625" type="line"/>
      <point x="93" y="625" type="line" smooth="yes"/>
      <point x="119" y="625"/>
      <point x="122" y="611"/>
      <point x="131" y="572" type="curve" smooth="yes"/>
      <point x="200" y="248" type="line"/>
      <point x="197" y="291" type="line"/>
      <point x="155" y="121" type="line" smooth="yes"/>
      <point x="147" y="92"/>
      <point x="129" y="85"/>
      <point x="109" y="85" type="curve" smooth="yes"/>
      <point x="96" y="85" type="line"/>
    </contour>
  </outline>
</glyph>
<glyph name="d" format="2">
  <advance width="667"/>
  <unicode hex="0064"/>
  <anchor x="672" y="735" name="right"/>
  <anchor x="300" y="0" name="bottom"/>
  <outline>
    <contour>
      <point x="469" y="0" type="curve" smooth="yes"/>
      <point x="511" y="0"/>
      <point x="534" y="0"/>
      <point x="576" y="0" type="curve"/>
      <point x="598" y="96" type="line"/>
      <point x="595" y="96"/>
      <point x="589" y="96"/>
      <point x="585" y="96" type="curve"/>
      <point x="565" y="96"/>
      <point x="555" y="103"/>
      <point x="555" y="120" type="curve" smooth="yes"/>
      <point x="555" y="133"/>
      <point x="563" y="163"/>
      <point x="585" y="251" type="curve" smooth="yes"/>
      <point x="717" y="780" type="line"/>
      <point x="470" y="780" type="line"/>
      <point x="450" y="700" type="line"/>
      <point x="457" y="698" type="line" smooth="yes"/>
      <point x="472" y="694"/>
      <point x="478" y="681"/>
      <point x="475" y="668" type="curve" smooth="yes"/>
      <point x="344" y="146" type="line"/>
      <point x="356" y="142" type="line"/>
      <point x="356" y="115"/>
      <point x="356" y="104"/>
      <point x="356" y="93" type="curve" smooth="yes"/>
      <point x="356" y="33"/>
      <point x="398" y="0"/>
    </contour>
    <contour>
      <point x="174" y="-12" type="curve" smooth="yes"/>
      <point x="270" y="-12"/>
      <point x="325" y="60"/>
      <point x="405" y="205" type="curve"/>
      <point x="405" y="247" type="line"/>
      <point x="324" y="147"/>
      <point x="299" y="102"/>
      <point x="269" y="102" type="curve" smooth="yes"/>
      <point x="243" y="102"/>
      <point x="237" y="127"/>
      <point x="237" y="175" type="curve" smooth="yes"/>
      <point x="237" y="280"/>
      <point x="281" y="466"/>
      <point x="351" y="466" type="curve" smooth="yes"/>
      <point x="389" y="466"/>
      <point x="401" y="409"/>
      <point x="421" y="333" type="curve"/>
      <point x="437" y="363" type="line"/>
      <point x="441" y="509"/>
      <point x="387" y="582"/>
      <point x="287" y="582" type="curve" smooth="yes"/>
      <point x="133" y="582"/>
      <point x="24" y="380"/>
      <point x="24" y="193" type="curve" smooth="yes"/>
      <point x="24" y="59"/>
      <point x="80" y="-12"/>
    </contour>
  </outline>
</glyph>
<glyph name="i" format="2">
  <advance width="350"/>
  <unicode hex="0069"/>
  <anchor x="185" y="569" name="top"/>
  <anchor x="243" y="-10" name="right"/>
  <anchor x="182" y="-10" name="bottom"/>
  <outline>
    <contour>
      <point x="103" y="457" type="curve" smooth="yes"/>
      <point x="50" y="247" type="line" smooth="yes"/>
      <point x="28" y="158"/>
      <point x="17" y="123"/>
      <point x="17" y="93" type="curve" smooth="yes"/>
      <point x="17" y="33"/>
      <point x="59" y="0"/>
      <point x="130" y="0" type="curve" smooth="yes"/>
      <point x="174" y="0"/>
      <point x="219" y="0"/>
      <point x="262" y="0" type="curve"/>
      <point x="284" y="96" type="line"/>
      <point x="278" y="96"/>
      <point x="272" y="96"/>
      <point x="265" y="96" type="curve"/>
      <point x="245" y="96"/>
      <point x="235" y="103"/>
      <point x="235" y="120" type="curve" smooth="yes"/>
      <point x="235" y="134"/>
      <point x="244" y="160"/>
      <point x="267" y="251" type="curve" smooth="yes"/>
      <point x="346" y="569" type="line"/>
      <point x="96" y="569" type="line"/>
      <point x="76" y="489" type="line"/>
      <point x="84" y="487" type="line" smooth="yes"/>
      <point x="101" y="483"/>
      <point x="108" y="477"/>
    </contour>
    <contour>
      <point x="254" y="636" type="curve" smooth="yes"/>
      <point x="338" y="636"/>
      <point x="372" y="678"/>
      <point x="372" y="735" type="curve" smooth="yes"/>
      <point x="372" y="792"/>
      <point x="334" y="817"/>
      <point x="266" y="817" type="curve" smooth="yes"/>
      <point x="181" y="817"/>
      <point x="147" y="776"/>
      <point x="147" y="717" type="curve" smooth="yes"/>
      <point x="147" y="661"/>
      <point x="185" y="636"/>
    </contour>
  </outline>
</glyph>
<glyph name="l" format="2">
  <advance width="350"/>
  <unicode hex="006C"/>
  <anchor x="176" y="746" name="top"/>
  <anchor x="317" y="735" name="right"/>
  <anchor x="390" y="391" name="mid"/>
  <anchor x="180" y="0" name="bottom"/>
  <outline>
    <contour>
      <point x="266" y="251" type="curve" smooth="yes"/>
      <point x="398" y="780" type="line"/>
      <point x="149" y="780" type="line"/>
      <point x="129" y="700" type="line"/>
      <point x="136" y="698" type="line" smooth="yes"/>
      <point x="151" y="694"/>
      <point x="157" y="681"/>
      <point x="154" y="668" type="curve" smooth="yes"/>
      <point x="49" y="246" type="line" smooth="yes"/>
      <point x="26" y="151"/>
      <point x="18" y="120"/>
      <point x="18" y="93" type="curve" smooth="yes"/>
      <point x="18" y="33"/>
      <point x="60" y="0"/>
      <point x="131" y="0" type="curve" smooth="yes"/>
      <point x="172" y="0"/>
      <point x="215" y="0"/>
      <point x="257" y="0" type="curve"/>
      <point x="279" y="96" type="line"/>
      <point x="274" y="96"/>
      <point x="270" y="96"/>
      <point x="266" y="96" type="curve"/>
      <point x="246" y="96"/>
      <point x="236" y="103"/>
      <point x="236" y="120" type="curve" smooth="yes"/>
      <point x="236" y="134"/>
      <point x="244" y="164"/>
    </contour>
  </outline>
</glyph>
<glyph name="y" format="2">
  <advance width="619"/>
  <unicode hex="0079"/>
  <anchor x="337" y="569" name="top"/>
  <anchor x="307" y="-211" name="bottom"/>
  <outline>
    <contour>
      <point x="214" y="-43" type="line"/>
      <point x="131" y="457" type="line" smooth="yes"/>
      <point x="130" y="470"/>
      <point x="130" y="479"/>
      <point x="108" y="486" type="curve" smooth="yes"/>
      <point x="100" y="489" type="line"/>
      <point x="120" y="569" type="line"/>
      <point x="326" y="569" type="line"/>
      <point x="388" y="115" type="line"/>
      <point x="333" y="43" type="line"/>
    </contour>
    <contour>
      <point x="318" y="102" type="line"/>
      <point x="385" y="254"/>
      <point x="450" y="407"/>
      <point x="521" y="569" type="curve"/>
      <point x="661" y="569" type="line"/>
      <point x="661" y="561" type="line"/>
      <point x="559" y="376"/>
      <point x="444" y="160"/>
      <point x="359" y="14" type="curve" smooth="yes"/>
      <point x="251" y="-170"/>
      <point x="192" y="-245"/>
      <point x="46" y="-245" type="curve" smooth="yes"/>
      <point x="-8" y="-245"/>
      <point x="-49" y="-231"/>
      <point x="-66" y="-220" type="curve"/>
      <point x="-35" y="-97" type="line"/>
      <point x="-25" y="-103"/>
      <point x="6" y="-119"/>
      <point x="62" y="-119" type="curve" smooth="yes"/>
      <point x="148" y="-119"/>
      <point x="196" y="-65"/>
      <point x="248" y="55" type="curve"/>
    </contour>
  </outline>
</glyph>
<glyph name="E.alt" format="2">
  <advance width="629"/>
  <outline>
    <contour>
      <point x="569" y="218" type="line"/>
      <point x="467" y="218" type="line"/>
      <point x="427" y="128" type="line" smooth="yes"/>
      <point x="412" y="94"/>
      <point x="388" y="86"/>
      <point x="324" y="86" type="curve" smooth="yes"/>
      <point x="248" y="86" type="line"/>
      <point x="382" y="624" type="line"/>
      <point x="461" y="624" type="line" smooth="yes"/>
      <point x="501" y="624"/>
      <point x="522" y="616"/>
      <point x="520" y="582" type="curve" smooth="yes"/>
      <point x="516" y="517" type="line"/>
      <point x="615" y="517" type="line"/>
      <point x="657" y="710" type="line"/>
      <point x="133" y="710" type="line"/>
      <point x="111" y="625" type="line"/>
      <point x="121" y="625" type="line" smooth="yes"/>
      <point x="145" y="625"/>
      <point x="152" y="620"/>
      <point x="144" y="589" type="curve" smooth="yes"/>
      <point x="28" y="121" type="line" smooth="yes"/>
      <point x="21" y="91"/>
      <point x="7" y="85"/>
      <point x="-14" y="85" type="curve" smooth="yes"/>
      <point x="-23" y="85" type="line"/>
      <point x="-45" y="0" type="line"/>
      <point x="517" y="0" type="line"/>
    </contour>
    <contour>
      <point x="232" y="409" type="line"/>
      <point x="207" y="324" type="line"/>
      <point x="345" y="324" type="line" smooth="yes"/>
      <point x="370" y="324"/>
      <point x="372" y="301"/>
      <point x="366" y="275" type="curve" smooth="yes"/>
      <point x="362" y="257" type="line"/>
      <point x="445" y="257" type="line"/>
      <point x="500" y="475" type="line"/>
      <point x="417" y="475" type="line"/>
      <point x="413" y="460" type="line" smooth="yes"/>
      <point x="406" y="433"/>
      <point x="393" y="409"/>
      <point x="372" y="409" type="curve" smooth="yes"/>
    </contour>
  </outline>
</glyph>
<glyph name="F.alt" format="2">
  <advance width="598"/>
  <outline>
    <contour>
      <point x="382" y="624" type="line"/>
      <point x="454" y="624" type="line" smooth="yes"/>
      <point x="493" y="624"/>
      <point x="515" y="616"/>
      <point x="513" y="582" type="curve" smooth="yes"/>
      <point x="509" y="512" type="line"/>
      <point x="607" y="512" type="line"/>
      <point x="650" y="710" type="line"/>
      <point x="133" y="710" type="line"/>
      <point x="111" y="625" type="line"/>
      <point x="121" y="625" type="line" smooth="yes"/>
      <point x="145" y="625"/>
      <point x="152" y="620"/>
      <point x="144" y="589" type="curve" smooth="yes"/>
      <point x="28" y="121" type="line" smooth="yes"/>
      <point x="21" y="91"/>
      <point x="6" y="85"/>
      <point x="-15" y="85" type="curve" smooth="yes"/>
      <point x="-23" y="85" type="line"/>
      <point x="-45" y="0" type="line"/>
      <point x="288" y="0" type="line"/>
      <point x="310" y="85" type="line"/>
      <point x="294" y="85" type="line" smooth="yes"/>
      <point x="269" y="85"/>
      <point x="248" y="88"/>
      <point x="250" y="95" type="curve" smooth="yes"/>
    </contour>
    <contour>
      <point x="230" y="384" type="line"/>
      <point x="205" y="299" type="line"/>
      <point x="341" y="299" type="line" smooth="yes"/>
      <point x="366" y="299"/>
      <point x="367" y="275"/>
      <point x="361" y="249" type="curve" smooth="yes"/>
      <point x="357" y="232" type="line"/>
      <point x="440" y="232" type="line"/>
      <point x="495" y="450" type="line"/>
      <point x="412" y="450" type="line"/>
      <point x="408" y="434" type="line" smooth="yes"/>
      <point x="401" y="408"/>
      <point x="388" y="384"/>
      <point x="366" y="384" type="curve" smooth="yes"/>
    </contour>
  </outline>
</glyph>
<glyph name="eight.den" format="2">
  <advance width="404"/>
  <outline>
    <contour>
      <point x="164" y="-6" type="curve" smooth="yes"/>
      <point x="314" y="-6"/>
      <point x="359" y="47"/>
      <point x="359" y="129" type="curve" smooth="yes"/>
      <point x="359" y="217"/>
      <point x="260" y="230"/>
      <point x="152" y="230" type="curve" smooth="yes"/>
      <point x="37" y="230"/>
      <point x="-26" y="202"/>
      <point x="-26" y="112" type="curve" smooth="yes"/>
      <point x="-26" y="19"/>
      <point x="63" y="-6"/>
    </contour>
    <contour>
      <point x="205" y="222" type="curve" smooth="yes"/>
      <point x="340" y="222"/>
      <point x="380" y="249"/>
      <point x="380" y="330" type="curve" smooth="yes"/>
      <point x="380" y="388"/>
      <point x="344" y="428"/>
      <point x="210" y="428" type="curve" smooth="yes"/>
      <point x="80" y="428"/>
      <point x="37" y="383"/>
      <point x="37" y="314" type="curve" smooth="yes"/>
      <point x="37" y="243"/>
      <point x="100" y="222"/>
    </contour>
    <contour>
      <point x="198" y="244" type="curve" smooth="yes"/>
      <point x="184" y="244"/>
      <point x="179" y="254"/>
      <point x="179" y="280" type="curve" smooth="yes"/>
      <point x="179" y="299"/>
      <point x="181" y="311"/>
      <point x="184" y="328" type="curve" smooth="yes"/>
      <point x="192" y="367"/>
      <point x="199" y="377"/>
      <point x="215" y="377" type="curve" smooth="yes"/>
      <point x="229" y="377"/>
      <point x="234" y="367"/>
      <point x="234" y="340" type="curve" smooth="yes"/>
      <point x="234" y="321"/>
      <point x="232" y="308"/>
      <point x="229" y="292" type="curve" smooth="yes"/>
      <point x="221" y="254"/>
      <point x="214" y="244"/>
    </contour>
    <contour>
      <point x="178" y="204" type="curve" smooth="yes"/>
      <point x="199" y="204"/>
      <point x="206" y="188"/>
      <point x="206" y="163" type="curve" smooth="yes"/>
      <point x="206" y="144"/>
      <point x="204" y="129"/>
      <point x="201" y="113" type="curve" smooth="yes"/>
      <point x="191" y="65"/>
      <point x="182" y="47"/>
      <point x="156" y="47" type="curve" smooth="yes"/>
      <point x="134" y="47"/>
      <point x="127" y="64"/>
      <point x="127" y="91" type="curve" smooth="yes"/>
      <point x="127" y="111"/>
      <point x="129" y="124"/>
      <point x="132" y="141" type="curve" smooth="yes"/>
      <point x="142" y="186"/>
      <point x="150" y="204"/>
    </contour>
  </outline>
</glyph>
<glyph name="f_b" format="2">
  <advance width="1020"/>
  <outline>
    <contour>
      <point x="76" y="569" type="line"/>
      <point x="56" y="485" type="line"/>
      <point x="437" y="485" type="line"/>
      <point x="458" y="569" type="line"/>
    </contour>
    <contour>
      <point x="466" y="698" type="curve" smooth="yes"/>
      <point x="524" y="698"/>
      <point x="554.6443669592735" y="685.1524141603113"/>
      <point x="569" y="679" type="curve"/>
      <point x="602" y="730" type="line"/>
      <point x="561" y="752"/>
      <point x="486" y="785"/>
      <point x="411" y="785" type="curve" smooth="yes"/>
      <point x="247" y="785"/>
      <point x="178.50260827455736" y="738.39796017928"/>
      <point x="157" y="608" type="curve" smooth="yes"/>
      <point x="17" y="-241" type="line"/>
      <point x="183" y="-241" type="line"/>
      <point x="381" y="621" type="line" smooth="yes"/>
      <point x="393.65348564655795" y="676.087397107742"/>
      <point x="411" y="698.0"/>
    </contour>
    <contour>
      <point x="666" y="-12" type="curve" smooth="yes"/>
      <point x="874" y="-12"/>
      <point x="994" y="180"/>
      <point x="994" y="390" type="curve" smooth="yes"/>
      <point x="994" y="516"/>
      <point x="938" y="580"/>
      <point x="855" y="580" type="curve" smooth="yes"/>
      <point x="765" y="580"/>
      <point x="709" y="515"/>
      <point x="630" y="378" type="curve"/>
      <point x="615" y="323" type="line"/>
      <point x="694" y="433"/>
      <point x="725" y="467"/>
      <point x="751" y="467" type="curve" smooth="yes"/>
      <point x="776" y="467"/>
      <point x="783" y="443"/>
      <point x="783" y="394" type="curve" smooth="yes"/>
      <point x="783" y="259"/>
      <point x="727" y="92"/>
      <point x="659" y="92" type="curve" smooth="yes"/>
      <point x="615" y="92"/>
      <point x="602" y="119"/>
      <point x="576" y="175" type="curve"/>
      <point x="571" y="141"/>
      <point x="593" y="106"/>
      <point x="600" y="77" type="curve"/>
      <point x="774" y="780" type="line"/>
      <point x="426" y="780" type="line"/>
      <point x="542" y="708" type="line"/>
      <point x="395" y="112" type="line"/>
      <point x="448" y="49"/>
      <point x="540" y="-12"/>
    </contour>
  </outline>
</glyph>
<glyph name="f_f_b.alt" format="2">
  <advance width="1367"/>
  <outline>
    <contour>
      <point x="423" y="569" type="line"/>
      <point x="403" y="485" type="line"/>
      <point x="784" y="485" type="line"/>
      <point x="805" y="569" type="line"/>
    </contour>
    <contour>
      <point x="813" y="698" type="curve" smooth="yes"/>
      <point x="871" y="698"/>
      <point x="902" y="685"/>
      <point x="916" y="679" type="curve"/>
      <point x="949" y="730" type="line"/>
      <point x="908" y="752"/>
      <point x="833" y="785"/>
      <point x="758" y="785" type="curve" smooth="yes"/>
      <point x="594" y="785"/>
      <point x="526" y="738"/>
      <point x="504" y="608" type="curve" smooth="yes"/>
      <point x="364" y="-241" type="line"/>
      <point x="530" y="-241" type="line"/>
      <point x="728" y="621" type="line" smooth="yes"/>
      <point x="741" y="676"/>
      <point x="758" y="698"/>
    </contour>
    <contour>
      <point x="1013" y="-12" type="curve" smooth="yes"/>
      <point x="1221" y="-12"/>
      <point x="1341" y="180"/>
      <point x="1341" y="390" type="curve" smooth="yes"/>
      <point x="1341" y="516"/>
      <point x="1285" y="580"/>
      <point x="1202" y="580" type="curve" smooth="yes"/>
      <point x="1112" y="580"/>
      <point x="1056" y="515"/>
      <point x="977" y="378" type="curve"/>
      <point x="962" y="323" type="line"/>
      <point x="1041" y="433"/>
      <point x="1072" y="467"/>
      <point x="1098" y="467" type="curve" smooth="yes"/>
      <point x="1123" y="467"/>
      <point x="1130" y="443"/>
      <point x="1130" y="394" type="curve" smooth="yes"/>
      <point x="1130" y="259"/>
      <point x="1074" y="92"/>
      <point x="1006" y="92" type="curve" smooth="yes"/>
      <point x="962" y="92"/>
      <point x="949" y="119"/>
      <point x="923" y="175" type="curve"/>
      <point x="918" y="141"/>
      <point x="940" y="106"/>
      <point x="947" y="77" type="curve"/>
      <point x="1121" y="780" type="line"/>
      <point x="773" y="780" type="line"/>
      <point x="889" y="708" type="line"/>
      <point x="742" y="112" type="line"/>
      <point x="795" y="49"/>
      <point x="887" y="-12"/>
    </contour>
    <contour>
      <point x="75" y="569" type="line"/>
      <point x="55" y="485" type="line"/>
      <point x="454" y="485" type="line"/>
      <point x="474" y="569" type="line"/>
    </contour>
    <contour>
      <point x="445" y="772" type="curve" smooth="yes"/>
      <point x="274" y="772"/>
      <point x="178" y="739"/>
      <point x="153" y="587" type="curve" smooth="yes"/>
      <point x="17" y="-241" type="line"/>
      <point x="183" y="-241" type="line"/>
      <point x="377" y="602" type="line" smooth="yes"/>
      <point x="393" y="673"/>
      <point x="408" y="700"/>
      <point x="470" y="700" type="curve" smooth="yes"/>
      <point x="516" y="700"/>
      <point x="549" y="682"/>
      <point x="578" y="657" type="curve"/>
      <point x="568" y="694"/>
      <point x="566" y="713"/>
      <point x="522" y="713" type="curve"/>
      <point x="504" y="604" type="line"/>
      <point x="640" y="604" type="line"/>
      <point x="681" y="721" type="line"/>
      <point x="641" y="740"/>
      <point x="561" y="772"/>
    </contour>
  </outline>
</glyph>
<glyph name="f_f_h" format="2">
  <advance width="1373"/>
  <outline>
    <contour>
      <point x="423" y="569" type="line"/>
      <point x="403" y="485" type="line"/>
      <point x="784" y="485" type="line"/>
      <point x="805" y="569" type="line"/>
    </contour>
    <contour>
      <point x="813" y="698" type="curve" smooth="yes"/>
      <point x="871" y="698"/>
      <point x="902" y="685"/>
      <point x="916" y="679" type="curve"/>
      <point x="949" y="730" type="line"/>
      <point x="908" y="752"/>
      <point x="833" y="785"/>
      <point x="758" y="785" type="curve" smooth="yes"/>
      <point x="594" y="785"/>
      <point x="526" y="738"/>
      <point x="504" y="608" type="curve" smooth="yes"/>
      <point x="364" y="-241" type="line"/>
      <point x="530" y="-241" type="line"/>
      <point x="728" y="621" type="line" smooth="yes"/>
      <point x="741" y="676"/>
      <point x="758" y="698"/>
    </contour>
    <contour>
      <point x="712" y="0" type="line"/>
      <point x="926" y="0" type="line"/>
      <point x="1121" y="780" type="line"/>
      <point x="772" y="780" type="line"/>
      <point x="889" y="708" type="line"/>
    </contour>
    <contour>
      <point x="1299" y="251" type="curve" smooth="yes"/>
      <point x="1335" y="396" type="line" smooth="yes"/>
      <point x="1342" y="423"/>
      <point x="1348" y="460"/>
      <point x="1348" y="491" type="curve" smooth="yes"/>
      <point x="1348" y="546"/>
      <point x="1315" y="581"/>
      <point x="1250" y="581" type="curve" smooth="yes"/>
      <point x="1142" y="581"/>
      <point x="1063" y="509"/>
      <point x="987" y="396" type="curve"/>
      <point x="977" y="310" type="line"/>
      <point x="1040" y="398"/>
      <point x="1084" y="459"/>
      <point x="1112" y="459" type="curve" smooth="yes"/>
      <point x="1123" y="459"/>
      <point x="1127" y="451"/>
      <point x="1127" y="439" type="curve" smooth="yes"/>
      <point x="1127" y="429"/>
      <point x="1124" y="408"/>
      <point x="1121" y="396" type="curve" smooth="yes"/>
      <point x="1083" y="247" type="line" smooth="yes"/>
      <point x="1058" y="150"/>
      <point x="1051" y="120"/>
      <point x="1051" y="93" type="curve" smooth="yes"/>
      <point x="1051" y="33"/>
      <point x="1093" y="0"/>
      <point x="1164" y="0" type="curve" smooth="yes"/>
      <point x="1205" y="0"/>
      <point x="1249" y="0"/>
      <point x="1290" y="0" type="curve"/>
      <point x="1312" y="96" type="line"/>
      <point x="1308" y="96"/>
      <point x="1304" y="96"/>
      <point x="1299" y="96" type="curve" smooth="yes"/>
      <point x="1279" y="96"/>
      <point x="1269" y="103"/>
      <point x="1269" y="120" type="curve" smooth="yes"/>
      <point x="1269" y="133"/>
      <point x="1277" y="163"/>
    </contour>
    <contour>
      <point x="75" y="569" type="line"/>
      <point x="55" y="485" type="line"/>
      <point x="454" y="485" type="line"/>
      <point x="474" y="569" type="line"/>
    </contour>
    <contour>
      <point x="183" y="-241" type="line"/>
      <point x="379" y="608" type="line" smooth="yes"/>
      <point x="393" y="667"/>
      <point x="398" y="683"/>
      <point x="427" y="683" type="curve" smooth="yes"/>
      <point x="445" y="683"/>
      <point x="458" y="678"/>
      <point x="465" y="676" type="curve"/>
      <point x="487" y="756" type="line"/>
      <point x="459" y="764"/>
      <point x="405" y="772"/>
      <point x="362" y="772" type="curve" smooth="yes"/>
      <point x="242" y="772"/>
      <point x="177" y="731"/>
      <point x="155" y="597" type="curve" smooth="yes"/>
      <point x="17" y="-241" type="line"/>
    </contour>
  </outline>
</glyph>
<glyph name="f_f_i" format="2">
  <advance width="1076"/>
  <outline>
    <contour>
      <point x="530" y="-241" type="line"/>
      <point x="729" y="623" type="line" smooth="yes"/>
      <point x="743" y="682"/>
      <point x="748" y="698"/>
      <point x="777" y="698" type="curve" smooth="yes"/>
      <point x="795" y="698"/>
      <point x="808" y="693"/>
      <point x="815" y="691" type="curve"/>
      <point x="837" y="771" type="line"/>
      <point x="809" y="779"/>
      <point x="755" y="787"/>
      <point x="712" y="787" type="curve" smooth="yes"/>
      <point x="592" y="787"/>
      <point x="527" y="744"/>
      <point x="506" y="619" type="curve" smooth="yes"/>
      <point x="364" y="-241" type="line"/>
    </contour>
    <contour>
      <point x="820" y="457" type="curve" smooth="yes"/>
      <point x="767" y="247" type="line" smooth="yes"/>
      <point x="745" y="158"/>
      <point x="734" y="123"/>
      <point x="734" y="93" type="curve" smooth="yes"/>
      <point x="734" y="33"/>
      <point x="776" y="0"/>
      <point x="847" y="0" type="curve" smooth="yes"/>
      <point x="891" y="0"/>
      <point x="936" y="0"/>
      <point x="979" y="0" type="curve"/>
      <point x="1001" y="96" type="line"/>
      <point x="995" y="96"/>
      <point x="989" y="96"/>
      <point x="982" y="96" type="curve"/>
      <point x="962" y="96"/>
      <point x="952" y="103"/>
      <point x="952" y="120" type="curve" smooth="yes"/>
      <point x="952" y="134"/>
      <point x="961" y="160"/>
      <point x="984" y="251" type="curve" smooth="yes"/>
      <point x="1063" y="569" type="line"/>
      <point x="422" y="569" type="line"/>
      <point x="402" y="485" type="line"/>
      <point x="779" y="485" type="line" smooth="yes"/>
      <point x="808" y="485"/>
      <point x="824" y="471"/>
    </contour>
    <contour>
      <point x="971" y="636" type="curve" smooth="yes"/>
      <point x="1055" y="636"/>
      <point x="1089" y="678"/>
      <point x="1089" y="735" type="curve" smooth="yes"/>
      <point x="1089" y="792"/>
      <point x="1051" y="817"/>
      <point x="983" y="817" type="curve" smooth="yes"/>
      <point x="898" y="817"/>
      <point x="864" y="776"/>
      <point x="864" y="717" type="curve" smooth="yes"/>
      <point x="864" y="661"/>
      <point x="902" y="636"/>
    </contour>
    <contour>
      <point x="75" y="569" type="line"/>
      <point x="55" y="485" type="line"/>
      <point x="454" y="485" type="line"/>
      <point x="474" y="569" type="line"/>
    </contour>
    <contour>
      <point x="183" y="-241" type="line"/>
      <point x="379" y="608" type="line" smooth="yes"/>
      <point x="393" y="667"/>
      <point x="398" y="683"/>
      <point x="427" y="683" type="curve" smooth="yes"/>
      <point x="445" y="683"/>
      <point x="458" y="678"/>
      <point x="465" y="676" type="curve"/>
      <point x="487" y="756" type="line"/>
      <point x="459" y="764"/>
      <point x="405" y="772"/>
      <point x="362" y="772" type="curve" smooth="yes"/>
      <point x="242" y="772"/>
      <point x="177" y="731"/>
      <point x="155" y="597" type="curve" smooth="yes"/>
      <point x="17" y="-241" type="line"/>
    </contour>
  </outline>
</glyph>
<glyph name="f_f_j.alt" format="2">
  <advance width="1071"/>
  <outline>
    <contour>
      <point x="703" y="-52" type="line" smooth="yes"/>
      <point x="684" y="-132"/>
      <point x="674" y="-153"/>
      <point x="636" y="-153" type="curve" smooth="yes"/>
      <point x="622" y="-153"/>
      <point x="607" y="-147"/>
      <point x="598" y="-143" type="curve"/>
      <point x="576" y="-233" type="line"/>
      <point x="586" y="-238"/>
      <point x="627" y="-250"/>
      <point x="685" y="-250" type="curve" smooth="yes"/>
      <point x="816" y="-250"/>
      <point x="885" y="-207"/>
      <point x="919" y="-63" type="curve" smooth="yes"/>
      <point x="1067" y="569" type="line"/>
      <point x="422" y="569" type="line"/>
      <point x="402" y="485" type="line"/>
      <point x="762" y="485" type="line" smooth="yes"/>
      <point x="806" y="485"/>
      <point x="824" y="472"/>
      <point x="820" y="453" type="curve" smooth="yes"/>
    </contour>
    <contour>
      <point x="75" y="569" type="line"/>
      <point x="55" y="485" type="line"/>
      <point x="454" y="485" type="line"/>
      <point x="474" y="569" type="line"/>
    </contour>
    <contour>
      <point x="445" y="772" type="curve" smooth="yes"/>
      <point x="274" y="772"/>
      <point x="178" y="739"/>
      <point x="153" y="587" type="curve" smooth="yes"/>
      <point x="17" y="-241" type="line"/>
      <point x="183" y="-241" type="line"/>
      <point x="377" y="602" type="line" smooth="yes"/>
      <point x="393" y="673"/>
      <point x="408" y="700"/>
      <point x="470" y="700" type="curve" smooth="yes"/>
      <point x="516" y="700"/>
      <point x="549" y="682"/>
      <point x="578" y="657" type="curve"/>
      <point x="568" y="694"/>
      <point x="566" y="713"/>
      <point x="522" y="713" type="curve"/>
      <point x="504" y="604" type="line"/>
      <point x="640" y="604" type="line"/>
      <point x="681" y="721" type="line"/>
      <point x="641" y="740"/>
      <point x="561" y="772"/>
    </contour>
    <contour>
      <point x="821" y="787" type="curve" smooth="yes"/>
      <point x="609" y="787"/>
      <point x="526" y="747"/>
      <point x="505" y="616" type="curve" smooth="yes"/>
      <point x="364" y="-241" type="line"/>
      <point x="530" y="-241" type="line"/>
      <point x="726" y="611" type="line" smooth="yes"/>
      <point x="745" y="695"/>
      <point x="758" y="715"/>
      <point x="830" y="715" type="curve" smooth="yes"/>
      <point x="874" y="715"/>
      <point x="920" y="709"/>
      <point x="958" y="685" type="curve"/>
      <point x="942" y="712"/>
      <point x="934" y="729"/>
      <point x="903" y="729" type="curve"/>
      <point x="880" y="640" type="line"/>
      <point x="1027" y="640" type="line"/>
      <point x="1055" y="753" type="line"/>
      <point x="1014" y="767"/>
      <point x="921" y="787"/>
    </contour>
  </outline>
</glyph>
<glyph name="f_f_l.alt" format="2">
  <advance width="1083"/>
  <outline>
    <contour>
      <point x="423" y="569" type="line"/>
      <point x="403" y="485" type="line"/>
      <point x="784" y="485" type="line"/>
      <point x="805" y="569" type="line"/>
    </contour>
    <contour>
      <point x="813" y="698" type="curve" smooth="yes"/>
      <point x="871" y="698"/>
      <point x="902" y="685"/>
      <point x="916" y="679" type="curve"/>
      <point x="949" y="730" type="line"/>
      <point x="908" y="752"/>
      <point x="833" y="785"/>
      <point x="758" y="785" type="curve" smooth="yes"/>
      <point x="594" y="785"/>
      <point x="526" y="738"/>
      <point x="504" y="608" type="curve" smooth="yes"/>
      <point x="364" y="-241" type="line"/>
      <point x="530" y="-241" type="line"/>
      <point x="728" y="621" type="line" smooth="yes"/>
      <point x="741" y="676"/>
      <point x="758" y="698"/>
    </contour>
    <contour>
      <point x="990" y="251" type="curve" smooth="yes"/>
      <point x="1122" y="780" type="line"/>
      <point x="771" y="780" type="line"/>
      <point x="888" y="708" type="line"/>
      <point x="773" y="246" type="line" smooth="yes"/>
      <point x="749" y="151"/>
      <point x="742" y="120"/>
      <point x="742" y="93" type="curve" smooth="yes"/>
      <point x="742" y="33"/>
      <point x="784" y="0"/>
      <point x="855" y="0" type="curve" smooth="yes"/>
      <point x="896" y="0"/>
      <point x="939" y="0"/>
      <point x="981" y="0" type="curve"/>
      <point x="1003" y="96" type="line"/>
      <point x="998" y="96"/>
      <point x="994" y="96"/>
      <point x="990" y="96" type="curve"/>
      <point x="970" y="96"/>
      <point x="960" y="103"/>
      <point x="960" y="120" type="curve" smooth="yes"/>
      <point x="960" y="134"/>
      <point x="968" y="164"/>
    </contour>
    <contour>
      <point x="75" y="569" type="line"/>
      <point x="55" y="485" type="line"/>
      <point x="454" y="485" type="line"/>
      <point x="474" y="569" type="line"/>
    </contour>
    <contour>
      <point x="445" y="772" type="curve" smooth="yes"/>
      <point x="274" y="772"/>
      <point x="178" y="739"/>
      <point x="153" y="587" type="curve" smooth="yes"/>
      <point x="17" y="-241" type="line"/>
      <point x="183" y="-241" type="line"/>
      <point x="377" y="602" type="line" smooth="yes"/>
      <point x="393" y="673"/>
      <point x="408" y="700"/>
      <point x="470" y="700" type="curve" smooth="yes"/>
      <point x="516" y="700"/>
      <point x="549" y="682"/>
      <point x="578" y="657" type="curve"/>
      <point x="568" y="694"/>
      <point x="566" y="713"/>
      <point x="522" y="713" type="curve"/>
      <point x="504" y="604" type="line"/>
      <point x="640" y="604" type="line"/>
      <point x="681" y="721" type="line"/>
      <point x="641" y="740"/>
      <point x="561" y="772"/>
    </contour>
  </outline>
</glyph>
<glyph name="f_i" format="2">
  <advance width="729"/>
  <outline>
    <contour>
      <point x="183" y="-241" type="line"/>
      <point x="382" y="623" type="line" smooth="yes"/>
      <point x="396" y="682"/>
      <point x="401" y="698"/>
      <point x="430" y="698" type="curve" smooth="yes"/>
      <point x="448" y="698"/>
      <point x="461" y="693"/>
      <point x="468" y="691" type="curve"/>
      <point x="490" y="771" type="line"/>
      <point x="462" y="779"/>
      <point x="408" y="787"/>
      <point x="365" y="787" type="curve" smooth="yes"/>
      <point x="245" y="787"/>
      <point x="180" y="744"/>
      <point x="159" y="619" type="curve" smooth="yes"/>
      <point x="17" y="-241" type="line"/>
    </contour>
    <contour>
      <point x="471" y="453" type="curve" smooth="yes"/>
      <point x="419" y="247" type="line" smooth="yes"/>
      <point x="397" y="158"/>
      <point x="386" y="123"/>
      <point x="386" y="93" type="curve" smooth="yes"/>
      <point x="386" y="33"/>
      <point x="428" y="0"/>
      <point x="499" y="0" type="curve" smooth="yes"/>
      <point x="543" y="0"/>
      <point x="588" y="0"/>
      <point x="631" y="0" type="curve"/>
      <point x="653" y="96" type="line"/>
      <point x="647" y="96"/>
      <point x="641" y="96"/>
      <point x="634" y="96" type="curve"/>
      <point x="614" y="96"/>
      <point x="604" y="103"/>
      <point x="604" y="120" type="curve" smooth="yes"/>
      <point x="604" y="134"/>
      <point x="613" y="160"/>
      <point x="636" y="251" type="curve" smooth="yes"/>
      <point x="715" y="569" type="line"/>
      <point x="75" y="569" type="line"/>
      <point x="55" y="485" type="line"/>
      <point x="411" y="485" type="line" smooth="yes"/>
      <point x="454" y="485.0"/>
      <point x="476" y="471"/>
    </contour>
    <contour>
      <point x="623" y="636" type="curve" smooth="yes"/>
      <point x="707" y="636"/>
      <point x="741" y="678"/>
      <point x="741" y="735" type="curve" smooth="yes"/>
      <point x="741" y="792"/>
      <point x="703" y="817"/>
      <point x="635" y="817" type="curve" smooth="yes"/>
      <point x="550" y="817"/>
      <point x="516" y="776"/>
      <point x="516" y="717" type="curve" smooth="yes"/>
      <point x="516" y="661"/>
      <point x="554" y="636"/>
    </contour>
  </outline>
</glyph>
<glyph name="five.oldprop" format="2">
  <advance width="523"/>
  <outline>
    <contour>
      <point x="191" y="-90" type="curve" smooth="yes"/>
      <point x="373" y="-90"/>
      <point x="476" y="26"/>
      <point x="476" y="204" type="curve" smooth="yes"/>
      <point x="476" y="321"/>
      <point x="419" y="386"/>
      <point x="310" y="386" type="curve" smooth="yes"/>
      <point x="219" y="386"/>
      <point x="174" y="346"/>
      <point x="138" y="282" type="curve"/>
      <point x="146" y="276" type="line"/>
      <point x="232" y="619" type="line"/>
      <point x="191" y="505" type="line"/>
      <point x="478" y="505" type="line"/>
      <point x="525" y="639" type="line"/>
      <point x="150" y="639" type="line"/>
      <point x="45" y="221" type="line"/>
      <point x="135" y="221" type="line"/>
      <point x="162" y="271"/>
      <point x="186" y="299"/>
      <point x="222" y="299" type="curve" smooth="yes"/>
      <point x="259" y="299"/>
      <point x="273" y="268"/>
      <point x="273" y="209" type="curve" smooth="yes"/>
      <point x="273" y="128"/>
      <point x="254" y="-4"/>
      <point x="166" y="-4" type="curve" smooth="yes"/>
      <point x="102" y="-4"/>
      <point x="84" y="41"/>
      <point x="68" y="101" type="curve"/>
      <point x="-30" y="75" type="line"/>
      <point x="-7" y="-29"/>
      <point x="53" y="-90"/>
    </contour>
  </outline>
</glyph>
<glyph name="fraction" format="2">
  <advance width="164"/>
  <outline>
    <contour>
      <point x="331" y="710" type="line"/>
      <point x="-277" y="0" type="line"/>
      <point x="-165" y="0" type="line"/>
      <point x="441" y="710" type="line"/>
    </contour>
  </outline>
</glyph>
<glyph name="minus.sub" format="2">
  <advance width="352"/>
  <outline>
    <contour>
      <point x="295" y="125" type="line"/>
      <point x="1" y="125" type="line"/>
      <point x="-20" y="40" type="line"/>
      <point x="274" y="40" type="line"/>
    </contour>
  </outline>
</glyph>
<glyph name="one.midprop" format="2">
  <advance width="425"/>
  <outline>
    <contour>
      <point x="291" y="119" type="curve" smooth="yes"/>
      <point x="432" y="679" type="line"/>
      <point x="250" y="679" type="line"/>
      <point x="208" y="635"/>
      <point x="177" y="599"/>
      <point x="88" y="598" type="curve"/>
      <point x="60" y="483" type="line"/>
      <point x="135" y="482"/>
      <point x="172" y="506"/>
      <point x="219" y="606" type="curve"/>
      <point x="202" y="599" type="line"/>
      <point x="81" y="119" type="line" smooth="yes"/>
      <point x="71" y="81"/>
      <point x="50" y="73"/>
      <point x="16" y="73" type="curve" smooth="yes"/>
      <point x="-21" y="73" type="line"/>
      <point x="-39" y="0" type="line"/>
      <point x="332" y="0" type="line"/>
      <point x="350" y="73" type="line"/>
      <point x="328" y="73" type="line" smooth="yes"/>
      <point x="303" y="73"/>
      <point x="281" y="81"/>
    </contour>
  </outline>
</glyph>
<glyph name="seven.den" format="2">
  <advance width="403"/>
  <outline>
    <contour>
      <point x="206" y="327" type="line" smooth="yes"/>
      <point x="154" y="327"/>
      <point x="130" y="321"/>
      <point x="122" y="298" type="curve" smooth="yes"/>
      <point x="107" y="255" type="line"/>
      <point x="38" y="255" type="line"/>
      <point x="78" y="415" type="line"/>
      <point x="376" y="415" type="line"/>
      <point x="353" y="323" type="line"/>
      <point x="271" y="262"/>
      <point x="237" y="184"/>
      <point x="198" y="0" type="curve"/>
      <point x="45" y="0" type="line"/>
      <point x="98" y="182"/>
      <point x="253" y="300"/>
      <point x="327" y="348" type="curve"/>
      <point x="314" y="327" type="line"/>
    </contour>
  </outline>
</glyph>
<glyph name="three.den" format="2">
  <advance width="408"/>
  <outline>
    <contour>
      <point x="190" y="368" type="curve" smooth="yes"/>
      <point x="169" y="368"/>
      <point x="141" y="355"/>
      <point x="126" y="348" type="curve"/>
      <point x="134" y="367"/>
      <point x="156" y="377"/>
      <point x="170" y="379" type="curve"/>
      <point x="150" y="300" type="line"/>
      <point x="51" y="300" type="line"/>
      <point x="76" y="398" type="line"/>
      <point x="110" y="411"/>
      <point x="158" y="427"/>
      <point x="203" y="427" type="curve" smooth="yes"/>
      <point x="310" y="427"/>
      <point x="360" y="399"/>
      <point x="360" y="328" type="curve" smooth="yes"/>
      <point x="360" y="241"/>
      <point x="299" y="223"/>
      <point x="207" y="217" type="curve"/>
      <point x="163" y="223" type="line"/>
      <point x="294" y="218"/>
      <point x="344" y="178"/>
      <point x="344" y="120" type="curve" smooth="yes"/>
      <point x="344" y="32"/>
      <point x="278" y="-6"/>
      <point x="155" y="-6" type="curve" smooth="yes"/>
      <point x="36" y="-6"/>
      <point x="-4" y="43"/>
      <point x="-26" y="112" type="curve"/>
      <point x="33" y="135" type="line"/>
      <point x="47" y="101"/>
      <point x="64" y="56"/>
      <point x="129" y="56" type="curve" smooth="yes"/>
      <point x="181" y="56"/>
      <point x="196" y="93"/>
      <point x="196" y="139" type="curve" smooth="yes"/>
      <point x="196" y="177"/>
      <point x="181" y="194"/>
      <point x="144" y="194" type="curve" smooth="yes"/>
      <point x="110" y="194" type="line"/>
      <point x="124" y="246" type="line"/>
      <point x="158" y="246" type="line" smooth="yes"/>
      <point x="205" y="246"/>
      <point x="225" y="276"/>
      <point x="225" y="329" type="curve" smooth="yes"/>
      <point x="225" y="359"/>
      <point x="212" y="368"/>
    </contour>
  </outline>
</glyph>
<glyph name="zero.den" format="2">
  <advance width="414"/>
  <outline>
    <contour>
      <point x="216" y="194" type="curve" smooth="yes"/>
      <point x="192" y="94"/>
      <point x="182" y="59"/>
      <point x="157" y="59" type="curve" smooth="yes"/>
      <point x="143" y="59"/>
      <point x="139" y="70"/>
      <point x="139" y="92" type="curve" smooth="yes"/>
      <point x="139" y="113"/>
      <point x="145" y="170"/>
      <point x="158" y="228" type="curve" smooth="yes"/>
      <point x="181" y="327"/>
      <point x="192" y="363"/>
      <point x="217" y="363" type="curve" smooth="yes"/>
      <point x="230" y="363"/>
      <point x="235" y="352"/>
      <point x="235" y="331" type="curve" smooth="yes"/>
      <point x="235" y="310"/>
      <point x="229" y="253"/>
    </contour>
    <contour>
      <point x="387" y="254" type="curve" smooth="yes"/>
      <point x="387" y="364"/>
      <point x="323" y="428"/>
      <point x="208" y="428" type="curve" smooth="yes"/>
      <point x="62" y="428"/>
      <point x="-13" y="299"/>
      <point x="-13" y="168" type="curve" smooth="yes"/>
      <point x="-13" y="58"/>
      <point x="51" y="-5"/>
      <point x="166" y="-5" type="curve" smooth="yes"/>
      <point x="312" y="-5"/>
      <point x="387" y="123"/>
    </contour>
  </outline>
</glyph>
